<?xml version="1.0" standalone="no"?><!DOCTYPE svg PUBLIC "-//W3C//DTD SVG 1.1//EN" "http://www.w3.org/Graphics/SVG/1.1/DTD/svg11.dtd"><svg t="1550401040642" class="icon" style="" viewBox="0 0 1024 1024" version="1.1" xmlns="http://www.w3.org/2000/svg" p-id="898" xmlns:xlink="http://www.w3.org/1999/xlink" width="200" height="200"><defs><style type="text/css"></style></defs><path d="M928 832 896 832 896 384c0-70.4-57.6-128-128-128L576 256l0 544C576 817.92 561.92 832 544 832S512 817.92 512 800L512 192c0-70.4-57.6-128-128-128L192 64C121.6 64 64 121.6 64 192l0 640L32 832C14.08 832 0 846.08 0 864 0 881.92 14.08 896 32 896l896 0c17.92 0 32-14.08 32-32C960 846.08 945.92 832 928 832zM352 704l-128 0C206.08 704 192 689.92 192 672S206.08 640 224 640l128 0C369.92 640 384 654.08 384 672S369.92 704 352 704zM352 512l-128 0C206.08 512 192 497.92 192 480 192 462.08 206.08 448 224 448l128 0C369.92 448 384 462.08 384 480 384 497.92 369.92 512 352 512zM352 320l-128 0C206.08 320 192 305.92 192 288 192 270.08 206.08 256 224 256l128 0C369.92 256 384 270.08 384 288 384 305.92 369.92 320 352 320zM800 704l-128 0c-17.92 0-32-14.08-32-32s14.08-32 32-32l128 0c17.92 0 32 14.08 32 32S817.92 704 800 704zM800 512l-128 0C654.08 512 640 497.92 640 480 640 462.08 654.08 448 672 448l128 0C817.92 448 832 462.08 832 480 832 497.92 817.92 512 800 512z" p-id="899"></path></svg>